<svg xmlns="http://www.w3.org/2000/svg" version="1.1" xmlns:xlink="http://www.w3.org/1999/xlink" width="1500" height="194" viewBox="0 0 1500 194"><svg xml:space="preserve" width="1500" height="194" data-version="2" data-id="lg_RGF0hHyWQAnuW70Pq8" viewBox="0 0 451 194" x="0" y="0"><rect width="100%" height="100%" fill="transparent"></rect><path fill="#01ff70" fill-rule="evenodd" d="M91.805 43.043c-20.61.524-37.25 21.51-37.25 47.242 0 25.73 16.848 47.768 37.458 47.244h87.402v54.592L4.61 191.745v-89.421c-.109-60.55 77.189-60.178 87.194-59.28"></path><path fill="#f60419" fill-rule="evenodd" d="M368.972 152.387c18.299-.53 33.072-21.717 33.072-47.695s-14.958-48.226-33.256-47.698h-77.6V1.881l155.2.377v90.279c.096 61.13-68.532 60.756-77.416 59.85"></path><path fill="#1732e1" d="M86.187 73.945q0-.4-.65-.65-.65-.24-1.3-.24v-1.54h14.91v1.54q-.65 0-1.3.24-.65.25-.65.65v55.89q0 .41.65.65.65.24 1.3.24v1.54h-14.91v-1.54q.65 0 1.3-.24t.65-.65z"></path><rect width="14.91" height="60.75" x="-7.46" y="-30.38" fill="none" rx="0" ry="0" transform="translate(92.2 102.39)"></rect><path fill="#1732e1" d="M161.997 73.055q-.57 0-1.21.24-.65.25-.65.65v55.89q0 .41.61.65.6.24 1.17.24v1.54h-14.26v-1.54q1.95 0 1.22-1.05l-28.76-39.69v39.85q0 .41.65.65.65.24 1.3.24v1.54h-14.82v-1.54q.64 0 1.29-.24t.65-.65v-55.89q0-.4-.61-.65-.61-.24-1.17-.24v-1.54h14.66v1.54q-1.95 0-1.22 1.05l29.57 40.99-1.05-41.15q0-.4-.69-.65-.69-.24-1.26-.24v-1.54h14.58Z"></path><rect width="54.75" height="60.75" x="-27.38" y="-30.38" fill="none" rx="0" ry="0" transform="translate(135.12 102.39)"></rect><path fill="#1732e1" d="M213.757 120.925v12.96h-1.54q0-.57-.24-1.13-.24-.57-.65-.57h-41.23v-1.54q.57 0 1.18-.24.6-.25.6-.65v-55.89q0-.41-.6-.65-.61-.24-1.18-.24v-1.54h39.12q.41 0 .65-.57.25-.56.25-1.13h1.53v12.96h-1.53q0-.57-.25-1.14-.24-.56-.65-.56h-26.89v14.25h22.93q.4 0 .64-.56.25-.57.25-1.14h1.54v12.96h-1.54q0-.56-.25-1.13-.24-.57-.64-.57h-22.93v17.82h29q.41 0 .65-.57.24-.56.24-1.13Z"></path><rect width="43.66" height="64.15" x="-21.83" y="-32.08" fill="none" rx="0" ry="0" transform="translate(192.43 102.31)"></rect><path fill="#1732e1" d="M268.676 69.895v12.47h-1.54q0-.48-.24-1.05-.25-.57-.65-.57h-18.06v49.09q0 .41.64.65.65.24 1.3.24v1.54h-14.9v-1.54q.64 0 1.29-.24t.65-.65v-49.09h-18.14q-.41 0-.65.57-.25.57-.25 1.05h-1.53v-12.47h1.53q0 .49.25 1.05.24.57.65.57h47.22q.4 0 .65-.57.24-.56.24-1.05Z"></path><rect width="52.08" height="62.37" x="-26.04" y="-31.18" fill="none" rx="0" ry="0" transform="translate(243.14 101.58)"></rect><path fill="#1732e1" d="M324.726 130.485q.32.4 1.17.32.86-.08.94-.08v1.54h-18.31v-1.54q1.13 0 1.3-.24.16-.24-.25-.65l-20.81-23.17-2.68 2.76v20.41q0 .41.61.65.61.24 1.18.24v1.54h-13.94v-1.54q.57 0 1.18-.24t.61-.65v-55.89q0-.4-.61-.65-.61-.24-1.18-.24v-1.54h13.94v1.54q-.57 0-1.18.24-.61.25-.61.65v21.22l21.23-21.38q.16-.16.16-.33 0-.4-1.3-.4v-1.54h18.39v1.54l-1.54-.08q-.73 0-1.13.24l-25.52 25.84Z"></path><rect width="52.9" height="60.75" x="-26.45" y="-30.38" fill="none" rx="0" ry="0" transform="translate(300.89 102.39)"></rect><path fill="#1732e1" d="M358.907 133.155q-7.45 0-13.28-3.08-5.83-3.07-9.07-8.95-3.24-5.87-3.24-13.81v-33.37q0-.4-.69-.65-.69-.24-1.34-.24v-1.54h15.63v1.54q-.64 0-1.33.24-.69.25-.69.65v30.94q0 8.75 3.52 13.45 3.53 4.7 10.49 4.7 7.62 0 10.17-4.86t2.55-12.64v-31.59q0-.4-.69-.65-.69-.24-1.34-.24v-1.54h15.72v1.54q-.65 0-1.34.24-.69.25-.69.65v31.91q0 12.88-5.87 20.09-5.87 7.21-18.51 7.21"></path><rect width="54.03" height="61.64" x="-27.02" y="-30.82" fill="none" rx="0" ry="0" transform="translate(358.8 102.83)"></rect></svg></svg>