<?xml version="1.0" encoding="UTF-8"?>
<svg xmlns="http://www.w3.org/2000/svg" xmlns:xlink="http://www.w3.org/1999/xlink" width="361px" height="68px" viewBox="0 0 361 68" version="1.1">
<g id="surface1">
<path style=" stroke:none;fill-rule:evenodd;fill:rgb(0.392157%,100%,43.921569%);fill-opacity:1;" d="M 148.324219 15.085938 C 143.363281 15.269531 139.359375 22.625 139.359375 31.644531 C 139.359375 40.664062 143.414062 48.390625 148.375 48.207031 L 169.410156 48.207031 L 169.410156 67.339844 L 127.339844 67.210938 L 127.339844 35.867188 C 127.3125 14.640625 145.914062 14.773438 148.324219 15.085938 "/>
<path style=" stroke:none;fill-rule:evenodd;fill:rgb(96.470588%,1.568628%,9.803922%);fill-opacity:1;" d="M 215.027344 53.414062 C 219.433594 53.226562 222.988281 45.800781 222.988281 36.695312 C 222.988281 27.589844 219.386719 19.792969 214.984375 19.976562 L 196.308594 19.976562 L 196.308594 0.660156 L 233.660156 0.792969 L 233.660156 32.4375 C 233.683594 53.863281 217.167969 53.730469 215.027344 53.414062 "/>
<path style=" stroke:none;fill-rule:nonzero;fill:rgb(9.019608%,19.607843%,88.235295%);fill-opacity:1;" d="M 146.972656 25.917969 C 146.972656 25.824219 146.917969 25.75 146.816406 25.691406 C 146.710938 25.636719 146.605469 25.605469 146.503906 25.605469 L 146.503906 25.066406 L 150.089844 25.066406 L 150.089844 25.605469 C 149.988281 25.605469 149.882812 25.636719 149.777344 25.691406 C 149.675781 25.75 149.621094 25.824219 149.621094 25.917969 L 149.621094 45.507812 C 149.621094 45.605469 149.675781 45.679688 149.777344 45.738281 C 149.882812 45.792969 149.988281 45.820312 150.089844 45.820312 L 150.089844 46.359375 L 146.503906 46.359375 L 146.503906 45.820312 C 146.605469 45.820312 146.710938 45.792969 146.816406 45.738281 C 146.917969 45.679688 146.972656 45.605469 146.972656 45.507812 Z M 146.972656 25.917969 "/>
<path style=" stroke:none;fill-rule:nonzero;fill:rgb(9.019608%,19.607843%,88.235295%);fill-opacity:1;" d="M 165.21875 25.605469 C 165.125 25.605469 165.027344 25.636719 164.925781 25.691406 C 164.820312 25.75 164.769531 25.824219 164.769531 25.917969 L 164.769531 45.507812 C 164.769531 45.605469 164.816406 45.679688 164.917969 45.738281 C 165.011719 45.792969 165.105469 45.820312 165.199219 45.820312 L 165.199219 46.359375 L 161.765625 46.359375 L 161.765625 45.820312 C 162.078125 45.820312 162.175781 45.699219 162.058594 45.453125 L 155.136719 31.542969 L 155.136719 45.507812 C 155.136719 45.605469 155.191406 45.679688 155.292969 45.738281 C 155.398438 45.792969 155.503906 45.820312 155.605469 45.820312 L 155.605469 46.359375 L 152.039062 46.359375 L 152.039062 45.820312 C 152.144531 45.820312 152.246094 45.792969 152.351562 45.738281 C 152.457031 45.679688 152.507812 45.605469 152.507812 45.507812 L 152.507812 25.917969 C 152.507812 25.824219 152.457031 25.75 152.359375 25.691406 C 152.261719 25.636719 152.167969 25.605469 152.078125 25.605469 L 152.078125 25.066406 L 155.605469 25.066406 L 155.605469 25.605469 C 155.292969 25.605469 155.195312 25.730469 155.3125 25.976562 L 162.429688 40.34375 L 162.175781 25.917969 C 162.175781 25.824219 162.121094 25.75 162.011719 25.691406 C 161.902344 25.636719 161.800781 25.605469 161.707031 25.605469 L 161.707031 25.066406 L 165.21875 25.066406 Z M 165.21875 25.605469 "/>
<path style=" stroke:none;fill-rule:nonzero;fill:rgb(9.019608%,19.607843%,88.235295%);fill-opacity:1;" d="M 177.675781 42.386719 L 177.675781 46.929688 L 177.304688 46.929688 C 177.304688 46.796875 177.285156 46.664062 177.246094 46.53125 C 177.207031 46.398438 177.15625 46.332031 177.089844 46.332031 L 167.167969 46.332031 L 167.167969 45.792969 C 167.257812 45.792969 167.351562 45.765625 167.449219 45.707031 C 167.546875 45.652344 167.59375 45.574219 167.59375 45.480469 L 167.59375 25.890625 C 167.59375 25.796875 167.546875 25.71875 167.449219 25.664062 C 167.351562 25.605469 167.257812 25.578125 167.167969 25.578125 L 167.167969 25.039062 L 176.582031 25.039062 C 176.648438 25.039062 176.699219 24.972656 176.738281 24.839844 C 176.777344 24.707031 176.796875 24.578125 176.796875 24.441406 L 177.167969 24.441406 L 177.167969 28.984375 L 176.796875 28.984375 C 176.796875 28.851562 176.777344 28.71875 176.738281 28.585938 C 176.699219 28.457031 176.648438 28.390625 176.582031 28.390625 L 170.109375 28.390625 L 170.109375 33.386719 L 175.628906 33.386719 C 175.691406 33.386719 175.742188 33.320312 175.78125 33.1875 C 175.824219 33.054688 175.84375 32.921875 175.84375 32.789062 L 176.214844 32.789062 L 176.214844 37.332031 L 175.84375 37.332031 C 175.84375 37.199219 175.824219 37.070312 175.78125 36.9375 C 175.742188 36.800781 175.691406 36.734375 175.628906 36.734375 L 170.109375 36.734375 L 170.109375 42.980469 L 177.089844 42.980469 C 177.15625 42.980469 177.207031 42.914062 177.246094 42.78125 C 177.285156 42.652344 177.304688 42.519531 177.304688 42.386719 Z M 177.675781 42.386719 "/>
<path style=" stroke:none;fill-rule:nonzero;fill:rgb(9.019608%,19.607843%,88.235295%);fill-opacity:1;" d="M 190.890625 24.5 L 190.890625 28.871094 L 190.519531 28.871094 C 190.519531 28.757812 190.5 28.636719 190.460938 28.503906 C 190.421875 28.367188 190.371094 28.300781 190.304688 28.300781 L 185.960938 28.300781 L 185.960938 45.507812 C 185.960938 45.605469 186.011719 45.679688 186.113281 45.738281 C 186.21875 45.792969 186.324219 45.820312 186.425781 45.820312 L 186.425781 46.359375 L 182.839844 46.359375 L 182.839844 45.820312 C 182.945312 45.820312 183.046875 45.792969 183.152344 45.738281 C 183.253906 45.679688 183.308594 45.605469 183.308594 45.507812 L 183.308594 28.300781 L 178.941406 28.300781 C 178.875 28.300781 178.824219 28.367188 178.785156 28.503906 C 178.746094 28.636719 178.726562 28.757812 178.726562 28.871094 L 178.355469 28.871094 L 178.355469 24.5 L 178.726562 24.5 C 178.726562 24.613281 178.746094 24.738281 178.785156 24.867188 C 178.824219 25 178.875 25.066406 178.941406 25.066406 L 190.304688 25.066406 C 190.371094 25.066406 190.421875 25 190.460938 24.867188 C 190.5 24.738281 190.519531 24.613281 190.519531 24.5 Z M 190.890625 24.5 "/>
<path style=" stroke:none;fill-rule:nonzero;fill:rgb(9.019608%,19.607843%,88.235295%);fill-opacity:1;" d="M 204.378906 45.738281 C 204.433594 45.832031 204.527344 45.867188 204.660156 45.847656 C 204.800781 45.832031 204.875 45.820312 204.886719 45.820312 L 204.886719 46.359375 L 200.480469 46.359375 L 200.480469 45.820312 C 200.664062 45.820312 200.765625 45.792969 200.792969 45.738281 C 200.820312 45.679688 200.800781 45.605469 200.734375 45.507812 L 195.726562 37.386719 L 195.082031 38.355469 L 195.082031 45.507812 C 195.082031 45.605469 195.128906 45.679688 195.226562 45.738281 C 195.324219 45.792969 195.421875 45.820312 195.511719 45.820312 L 195.511719 46.359375 L 192.15625 46.359375 L 192.15625 45.820312 C 192.25 45.820312 192.34375 45.792969 192.441406 45.738281 C 192.539062 45.679688 192.585938 45.605469 192.585938 45.507812 L 192.585938 25.917969 C 192.585938 25.824219 192.539062 25.75 192.441406 25.691406 C 192.34375 25.636719 192.25 25.605469 192.15625 25.605469 L 192.15625 25.066406 L 195.511719 25.066406 L 195.511719 25.605469 C 195.421875 25.605469 195.324219 25.636719 195.226562 25.691406 C 195.128906 25.75 195.082031 25.824219 195.082031 25.917969 L 195.082031 33.355469 L 200.191406 25.863281 C 200.214844 25.824219 200.230469 25.785156 200.230469 25.746094 C 200.230469 25.652344 200.125 25.605469 199.917969 25.605469 L 199.917969 25.066406 L 204.34375 25.066406 L 204.34375 25.605469 L 203.972656 25.578125 C 203.855469 25.578125 203.761719 25.605469 203.699219 25.664062 L 197.558594 34.71875 Z M 204.378906 45.738281 "/>
<path style=" stroke:none;fill-rule:nonzero;fill:rgb(9.019608%,19.607843%,88.235295%);fill-opacity:1;" d="M 212.605469 46.671875 C 211.410156 46.671875 210.347656 46.3125 209.410156 45.59375 C 208.476562 44.875 207.746094 43.832031 207.226562 42.457031 C 206.707031 41.085938 206.449219 39.472656 206.449219 37.617188 L 206.449219 25.917969 C 206.449219 25.824219 206.394531 25.75 206.28125 25.691406 C 206.171875 25.636719 206.0625 25.605469 205.960938 25.605469 L 205.960938 25.066406 L 209.722656 25.066406 L 209.722656 25.605469 C 209.617188 25.605469 209.511719 25.636719 209.402344 25.691406 C 209.289062 25.75 209.234375 25.824219 209.234375 25.917969 L 209.234375 36.765625 C 209.234375 38.808594 209.515625 40.378906 210.082031 41.476562 C 210.648438 42.578125 211.488281 43.125 212.605469 43.125 C 213.828125 43.125 214.644531 42.558594 215.054688 41.421875 C 215.464844 40.285156 215.667969 38.808594 215.667969 36.992188 L 215.667969 25.917969 C 215.667969 25.824219 215.613281 25.75 215.5 25.691406 C 215.390625 25.636719 215.285156 25.605469 215.179688 25.605469 L 215.179688 25.066406 L 218.960938 25.066406 L 218.960938 25.605469 C 218.859375 25.605469 218.75 25.636719 218.640625 25.691406 C 218.53125 25.75 218.472656 25.824219 218.472656 25.917969 L 218.472656 37.105469 C 218.472656 40.113281 218.003906 42.460938 217.0625 44.144531 C 216.121094 45.832031 214.632812 46.671875 212.605469 46.671875 "/>
</g>
</svg>
